<svg xmlns="http://www.w3.org/2000/svg" width="161" height="50" fill="none" xmlns:v="https://vecta.io/nano"><path d="M12.133 32.47h-6.82c-.372 0-.7-.126-.952-.378a1.22 1.22 0 0 1-.394-.913 1.19 1.19 0 0 1 .394-.904c.263-.246.58-.37.952-.37h6.82a1.54 1.54 0 0 0 .827-.24c.256-.185.435-.393.538-.628l.077-.267c.025-.092.04-.187.04-.286 0-.27-.084-.53-.25-.775-.192-.246-.4-.418-.654-.517a1.5 1.5 0 0 0-.577-.11h-4c-.885 0-1.66-.227-2.327-.683a3.93 3.93 0 0 1-.884-.756c-.256-.296-.462-.62-.616-.978-.218-.492-.326-1.014-.326-1.568 0-.405.064-.796.192-1.17a4.25 4.25 0 0 1 .52-1.042 3.93 3.93 0 0 1 1.827-1.439 4.14 4.14 0 0 1 1.616-.314h6.82a1.34 1.34 0 0 1 .952.37 1.19 1.19 0 0 1 .394.904 1.22 1.22 0 0 1-.394.914c-.263.252-.58.378-.952.378h-6.82a1.47 1.47 0 0 0-.827.24 1.45 1.45 0 0 0-.538.627l-.077.26a.95.95 0 0 0-.038.276c0 .295.083.56.25.794.192.246.4.418.654.516.167.074.36.1.577.1h4c.884 0 1.66.228 2.326.682a3.94 3.94 0 0 1 .885.757 3.75 3.75 0 0 1 .615.977 3.79 3.79 0 0 1 .327 1.55c0 .418-.065.815-.192 1.2a4.34 4.34 0 0 1-.519 1.042 3.93 3.93 0 0 1-1.827 1.439c-.513.2-1.05.314-1.615.314zm25.39-1.144c-.95-.602-1.696-1.4-2.24-2.36s-.817-2-.817-3.118a6.58 6.58 0 0 1 .308-2.038 6.5 6.5 0 0 1 .865-1.744 6.54 6.54 0 0 1 1.336-1.429c.52-.412 1.093-.74 1.72-.987.86-.357 1.762-.535 2.7-.535h3.516c.37 0 .7.126.952.378a1.22 1.22 0 0 1 .394.913 1.22 1.22 0 0 1-.394.914c-.263.252-.58.378-.952.378H41.4c-.45 0-.872.062-1.27.184a4.51 4.51 0 0 0-1.115.517 4.04 4.04 0 0 0-1.385 1.466 3.87 3.87 0 0 0-.5 1.928 3.73 3.73 0 0 0 .193 1.199 4.22 4.22 0 0 0 .538 1.07 4.26 4.26 0 0 0 .827.885 4.31 4.31 0 0 0 1.058.627 4.32 4.32 0 0 0 1.654.314h3.516c.37 0 .7.126.952.378a1.22 1.22 0 0 1 .394.913 1.22 1.22 0 0 1-.394.913 1.32 1.32 0 0 1-.952.378H41.4c-.744 0-1.433-.102-2.067-.304s-1.24-.483-1.817-.84zm12.654 0c-.95-.602-1.696-1.4-2.24-2.36s-.817-2-.817-3.118a6.58 6.58 0 0 1 .308-2.038c.205-.633.493-1.214.866-1.744a6.55 6.55 0 0 1 1.336-1.429c.52-.412 1.093-.74 1.72-.987a6.99 6.99 0 0 1 2.711-.535h3.516c.37 0 .7.126.952.378a1.22 1.22 0 0 1 .394.913 1.22 1.22 0 0 1-.394.914c-.263.252-.58.378-.952.378h-3.516c-.45 0-.872.062-1.27.184a4.51 4.51 0 0 0-1.115.517 4.12 4.12 0 0 0-1.384 1.466c-.334.597-.5 1.24-.5 1.928a3.73 3.73 0 0 0 .192 1.199 4.23 4.23 0 0 0 .538 1.07 4.25 4.25 0 0 0 .827.885c.32.258.673.468 1.058.627.512.2 1.064.314 1.653.314h3.516c.37 0 .7.126.952.378a1.22 1.22 0 0 1 .394.913 1.22 1.22 0 0 1-.394.913c-.263.252-.58.378-.952.378H54.06a6.76 6.76 0 0 1-2.067-.304 8.15 8.15 0 0 1-1.817-.84zM68.636 24.5a1.53 1.53 0 0 0 .827-.24 1.57 1.57 0 0 0 .451-.479 1.17 1.17 0 0 0 .183-.627c0-.357-.084-.64-.25-.85a1.81 1.81 0 0 0-.5-.452c-.192-.117-.4-.175-.653-.175H64.62c-.308 0-.58.08-.817.24a1.59 1.59 0 0 0-.548.627l-.077.268a1.09 1.09 0 0 0-.038.286V24.5h5.496zm-4.112 7.95c-.4 0-.805-.058-1.183-.176s-.727-.28-1.047-.488a4.35 4.35 0 0 1-.885-.775 3.75 3.75 0 0 1-.615-.978 3.78 3.78 0 0 1-.327-1.55V23.1c0-.85.237-1.592.712-2.232a3.91 3.91 0 0 1 1.5-1.292c.62-.308 1.26-.46 1.952-.46h4.016a4.19 4.19 0 0 1 2.308.665 3.91 3.91 0 0 1 1.519 1.771 3.79 3.79 0 0 1 .327 1.549c0 .406-.064.797-.192 1.172a4.34 4.34 0 0 1-.519 1.042 3.87 3.87 0 0 1-1.481 1.301 4.26 4.26 0 0 1-1.961.47H63.14v1.402a1.3 1.3 0 0 0 .25.775 1.76 1.76 0 0 0 .51.452 1.28 1.28 0 0 0 .664.176h6.88a1.32 1.32 0 0 1 .95.378c.26.252.394.556.394.913a1.19 1.19 0 0 1-.394.904 1.34 1.34 0 0 1-.95.37h-6.92zm12.638-12.653c.334-.2.693-.375 1.077-.498a4.02 4.02 0 0 1 1.231-.184h5.362c.37 0 .7.126.952.378a1.22 1.22 0 0 1 .394.913 1.22 1.22 0 0 1-.394.914c-.263.252-.58.378-.952.378H79.47a1.61 1.61 0 0 0-.683.157 1.24 1.24 0 0 0-.529.452c-.166.258-.25.523-.25.793v8.08a1.22 1.22 0 0 1-.394.913c-.263.252-.58.378-.952.378s-.686-.126-.943-.378a1.23 1.23 0 0 1-.384-.913V23.1a3.77 3.77 0 0 1 .327-1.549 3.84 3.84 0 0 1 1.499-1.753z" fill="#000"/><path d="M98.853 25.792a4.11 4.11 0 0 1 .769 1.144c.102.247.183.498.24.756a3.61 3.61 0 0 1 .086.793c0 .418-.064.815-.192 1.2s-.3.723-.52 1.043c-.23.32-.5.602-.808.848a4.33 4.33 0 0 1-1.02.6 4.24 4.24 0 0 1-1.615.313H89.47a1.32 1.32 0 0 1-.952-.378 1.22 1.22 0 0 1-.394-.913 1.19 1.19 0 0 1 .394-.904c.263-.245.58-.37.952-.37h6.323a1.5 1.5 0 0 0 .807-.24c.244-.16.424-.37.54-.627a1.26 1.26 0 0 0 .115-.554 1.37 1.37 0 0 0-.25-.775 1.48 1.48 0 0 0-.654-.517 1.44 1.44 0 0 0-.558-.1h-4.227a1.29 1.29 0 0 1-.942-.378 1.23 1.23 0 0 1-.384-.913c0-.357.128-.66.384-.913a1.29 1.29 0 0 1 .942-.378h4.285c.14 0 .275-.02.403-.065s.243-.095.346-.157a1.44 1.44 0 0 0 .539-.627 1.26 1.26 0 0 0 .115-.554 1.37 1.37 0 0 0-.25-.775c-.14-.22-.36-.393-.654-.516a1.45 1.45 0 0 0-.558-.111H89.47a1.32 1.32 0 0 1-.952-.378 1.22 1.22 0 0 1-.394-.914 1.22 1.22 0 0 1 .394-.913c.263-.252.58-.378.952-.378h6.323a4.14 4.14 0 0 1 1.231.184 4.21 4.21 0 0 1 1.096.517 4.02 4.02 0 0 1 1.5 1.734c.102.246.183.498.24.756a3.61 3.61 0 0 1 .086.793 3.65 3.65 0 0 1-.192 1.19 4.32 4.32 0 0 1-.519 1.042l-.192.24-.192.22zm5.892 1.273v1.402a1.05 1.05 0 0 0 .039.286l.077.268a1.59 1.59 0 0 0 .547.627c.237.16.5.24.818.24h3.823a1.23 1.23 0 0 0 .653-.175c.193-.117.36-.268.5-.452.167-.2.25-.5.25-.85a1.18 1.18 0 0 0-.183-.627 1.58 1.58 0 0 0-.452-.479 1.47 1.47 0 0 0-.826-.24h-5.247zm8.054-7.95c.37 0 .688.123.95.37a1.19 1.19 0 0 1 .394.904c0 .357-.13.66-.394.913a1.32 1.32 0 0 1-.95.377h-6.63a1.28 1.28 0 0 0-.663.176c-.2.117-.37.268-.5.452-.167.234-.25.492-.25.775v1.402h5.247c.294 0 .573.03.836.092a5.88 5.88 0 0 1 .78.24 3.94 3.94 0 0 1 1.826 1.438c.218.32.4.667.52 1.043a3.6 3.6 0 0 1 .192 1.171 3.78 3.78 0 0 1-.327 1.549 3.9 3.9 0 0 1-.615.987 3.82 3.82 0 0 1-.884.765c-.667.455-1.442.683-2.326.683h-3.766c-.577 0-1.115-.104-1.616-.314-.37-.148-.714-.344-1.03-.6a3.79 3.79 0 0 1-.797-.848c-.474-.64-.712-1.383-.712-2.232V23.08a3.8 3.8 0 0 1 .327-1.55c.154-.356.36-.682.616-.977a4.37 4.37 0 0 1 .883-.775c.32-.2.67-.372 1.05-.5a3.95 3.95 0 0 1 1.182-.175h6.67zm10.945 13.355h-5.997a1.32 1.32 0 0 1-.95-.378c-.26-.252-.394-.556-.394-.913a1.19 1.19 0 0 1 .394-.904 1.34 1.34 0 0 1 .951-.369h5.997a1.54 1.54 0 0 0 .827-.24 1.66 1.66 0 0 0 .461-.479 1.19 1.19 0 0 0 .174-.646c0-.332-.078-.6-.23-.83-.142-.197-.317-.35-.53-.46s-.446-.166-.702-.166h-5.997a1.34 1.34 0 0 1-.961-.387c-.257-.22-.384-.523-.384-.904v-5.387a1.2 1.2 0 0 1 .384-.904 1.34 1.34 0 0 1 .961-.387h8.804c.37 0 .7.126.952.377a1.22 1.22 0 0 1 .395.913 1.22 1.22 0 0 1-.395.914c-.262.252-.58.378-.952.378h-7.477V24.5h4.67c.436 0 .85.062 1.24.184s.753.3 1.087.498a4.35 4.35 0 0 1 .884.775 3.73 3.73 0 0 1 .615.977 3.79 3.79 0 0 1 .328 1.55 3.66 3.66 0 0 1-.193 1.19 4.31 4.31 0 0 1-.519 1.042 3.8 3.8 0 0 1-.798.85 4.13 4.13 0 0 1-1.029.59c-.5.2-1.04.314-1.615.314z" fill="#2f8d4c"/><path d="M130.424 31.18v-.738a1.22 1.22 0 0 1 .394-.913 1.32 1.32 0 0 1 .951-.378 1.29 1.29 0 0 1 .942.378 1.23 1.23 0 0 1 .385.913v.738a1.23 1.23 0 0 1-.385.913 1.29 1.29 0 0 1-.942.378 1.32 1.32 0 0 1-.951-.378c-.263-.252-.394-.556-.394-.913zm6.67-11.383a4.76 4.76 0 0 1 1.077-.498c.385-.123.795-.184 1.23-.184h5.36a1.31 1.31 0 0 1 .953.378 1.22 1.22 0 0 1 .394.913 1.22 1.22 0 0 1-.394.914c-.263.252-.58.378-.953.378h-5.36a1.61 1.61 0 0 0-.683.157 1.23 1.23 0 0 0-.528.452c-.167.258-.25.523-.25.793v8.08a1.22 1.22 0 0 1-.395.913 1.32 1.32 0 0 1-.952.378 1.29 1.29 0 0 1-.942-.378c-.256-.252-.384-.556-.384-.913V23.1c0-.54.108-1.057.327-1.55a3.84 3.84 0 0 1 1.499-1.753zm13.735.59v5.386a3.88 3.88 0 0 0 .192 1.227 4.17 4.17 0 0 0 .54 1.08c.474.676 1.102 1.174 1.884 1.494a5.58 5.58 0 0 0 .808.24 4.06 4.06 0 0 0 .865.092h3.074V20.39a1.22 1.22 0 0 1 .394-.914c.262-.252.58-.378.952-.378s.686.126.943.378a1.24 1.24 0 0 1 .384.914v10.8a1.23 1.23 0 0 1-.384.922c-.254.245-.572.37-.943.37h-4.42a6.99 6.99 0 0 1-2.076-.304c-.653-.202-1.263-.483-1.827-.84s-1.06-.784-1.5-1.282a6.56 6.56 0 0 1-1.048-1.669c-.36-.824-.54-1.7-.54-2.6V20.4a1.22 1.22 0 0 1 .394-.914c.263-.252.58-.378.952-.378s.7.126.952.378a1.22 1.22 0 0 1 .394.914zM21.932 29.916l-1.852-5.678 4.852-3.528 4.843 3.516-1.85 5.7H21.93zm10.914-6.688L24.95 17.47l-7.942 5.772 3.035 9.294h9.773l3.03-9.3zm-7.85 22.23c-1.8-.001-3.543-.234-5.205-.67L20.853 44h8.28l1.063.798c-1.66.435-3.402.668-5.2.67zm9.316-8.337l-3.552-4.294c-.2.16-.413.312-.638.455l.542.655 3 3.612-4.595 5.66h-8.13l-4.514-5.56 3.526-4.262a7.22 7.22 0 0 1-.649-.441l-3.5 4.22L4.856 33.94c3.427 7.707 11.15 13.082 20.13 13.082s16.7-5.375 20.128-13.082L34.3 37.12zM32.705 6.973l-.344-1.056a20.48 20.48 0 0 1 7.098 4.619 20.33 20.33 0 0 1 1.52 1.708l-1.143-.017-7.132-5.254zm-15.424 0l-7.133 5.254-1.14.017a20.68 20.68 0 0 1 1.521-1.708 20.46 20.46 0 0 1 7.093-4.617l-.342 1.054zm7.714-4c-9.604 0-17.77 6.15-20.78 14.724h6.348l.112-4.898 6.9-5.075 6.998 1.984v6.978h.78V9.74l7.075-2.006 6.895 5.078.112 4.895h6.348c-3-8.575-11.176-14.724-20.78-14.724z" fill="#000"/><path d="M46.256 34.17l-.238.54-.37.76-.148.278-.248.466-.136.235-.285.493-.447.7-.192.282-.28.412-.495.675-.205.26-.314.397-.19.22-.353.415-.183.2-.38.416-.586.596-.3.285-.305.29-.627.553-.647.53-.666.507-.405.286-.28.197-.703.458-.72.434-.356.197-.38.21-.753.382-.768.354-.784.327-.798.298-.81.27-.624.182-.2.058-.836.2-.35.074-.682.137-1.278.197-.27.036-.58.055-.3.028-.424.025L25 48.15C12.214 48.15 1.85 37.786 1.85 25S12.214 1.852 25 1.85c10.232.001 18.907 6.642 21.966 15.848h1.948l-.076-.24C45.638 7.336 36.178.002 25 0c-13.81.002-25 11.193-25 25s11.192 24.998 25 25c10.544-.002 19.557-6.53 23.23-15.766l.12-.3h-1.99c-.033.08-.07.156-.103.234z" fill="#2f8d4c"/></svg>