<svg xmlns="http://www.w3.org/2000/svg" width="128" height="128" fill="none"  xmlns:v="https://vecta.io/nano"><path d="M92.835 115.056c1.406-6.079.234-11.69.234-11.69-3.985 5.611-7.736 9.82-11.253 13.093-9.612.468-16.879-.701-16.879-.701s4.22 4.208 9.143 6.78c-6.564 3.975-10.784 4.443-10.784 4.443 28.366.701 45.245-17.77 45.245-17.77-4.689 2.572-10.315 4.676-15.707 5.845zm-27.897.468s-5.861-2.338-14.066-7.014c.234-4.91 1.172-11.223 2.579-19.173 0 0-6.564 6.547-15.004 11.457-4.923-3.507-10.081-7.482-15.238-11.924 0 0 2.344 7.482 7.267 15.899-4.454 1.636-9.143 2.338-13.363 1.402 0 0 4.923 6.313 20.396 8.885 4.22 5.144 9.377 9.119 15.472 10.755 0 0-1.875-2.104-2.344-9.586 4.454 0 9.143-.234 14.3-.701zM30.945 59.41c-6.799.234-12.19.702-16.41 1.637-1.172-7.248-1.407-12.626-1.407-12.626-3.282 5.144-5.626 10.054-7.033 14.73C1.407 65.021 0 66.658 0 66.658c.703 2.572 2.344 4.91 4.22 7.248-.703 10.989 3.048 18.237 3.048 18.237.703-3.741 2.344-7.716 4.454-11.223 5.861 4.676 11.722 7.716 11.722 7.716-2.813-4.91-4.689-10.288-6.33-15.665 6.564-7.949 13.831-13.561 13.831-13.561zm-15.941-26.42c3.282-3.039 7.267-6.547 12.19-10.054 0 0-4.454 0-9.143 1.169 3.048-7.482 6.564-11.69 6.564-11.69S4.689 26.443.938 51.694c0 0 1.641-4.442 7.267-11.457 2.344 4.91 4.923 8.183 4.923 8.183 0-5.845.703-10.989 1.876-15.431zM80.879 12.18c-5.157-2.572-10.315-4.442-15.004-5.845C71.736 1.425 77.363.022 77.363.022 67.985-.212 59.78 1.425 52.747 4.231c-10.315-.935-16.879.935-16.879.935 1.641 1.169 2.813 3.273 4.22 5.611-8.674 5.845-13.128 12.158-13.128 12.158 5.157-2.572 10.784-4.442 16.176-6.079.703 1.169 1.172 2.104 1.876 3.273 3.517 5.611 7.502 9.586 7.502 9.586 1.407-6.78 3.751-11.924 6.564-16.133 12.659-1.637 21.802-1.403 21.802-1.403zm43.839 29.46c-3.282-7.248-7.971-12.859-12.894-16.834-4.454-9.119-9.377-13.327-9.377-13.327.469 2.104 0 4.442-.703 7.014-11.019-5.611-20.865-6.313-20.865-6.313 6.33 4.209 11.956 9.119 16.645 14.496-4.454 7.248-10.315 13.327-10.315 13.327 7.736-1.637 13.831-2.572 18.754-2.572 7.502 10.521 11.722 19.172 11.722 19.172.234-7.014-.469-13.327-1.641-18.471 6.564.935 8.674 3.507 8.674 3.507zM128 67.827c-1.875 3.039-4.689 5.144-8.205 6.547-.469-9.352-1.876-17.769-1.876-17.769-2.813 7.716-5.86 14.73-8.908 20.575-10.081 1.403-20.161-.234-20.161-.234 5.392 6.547 9.846 10.522 13.128 13.093-5.157 8.651-8.908 13.327-8.908 13.327 7.267-1.637 12.893-4.443 17.582-7.716 1.875 1.169 3.517 2.806 5.158 5.144 0 0 3.047-4.209 3.985-13.795C126.828 77.413 128 67.827 128 67.827zm-63.297 3.507c-3.751 5.845-7.736 11.924-11.018 18.237 0 0-2.813-9.352-3.751-22.68-6.33-2.104-12.659-4.442-18.989-7.248 0 0 7.267-3.741 18.754-7.95.235-7.014 1.407-14.262 3.282-21.744 0 0 3.751 7.014 10.549 16.834 7.267-2.338 15.238-4.676 23.912-6.547 0 0-6.33 7.95-14.3 19.172 4.689 5.845 9.846 11.924 15.941 17.77-.234-.234-10.549-2.104-24.381-5.845z" fill="#0e2050"/></svg>